<?xml version="1.0" encoding="utf-8"?>
<!-- Generator: Adobe Illustrator 20.1.0, SVG Export Plug-In . SVG Version: 6.00 Build 0)  -->
<!DOCTYPE svg PUBLIC "-//W3C//DTD SVG 1.1//EN" "http://www.w3.org/Graphics/SVG/1.1/DTD/svg11.dtd">
<svg version="1.1" id="Layer_1" xmlns="http://www.w3.org/2000/svg" xmlns:xlink="http://www.w3.org/1999/xlink" x="0px" y="0px"
	 viewBox="0 0 39.6 32.7" style="enable-background:new 0 0 39.6 32.7;" xml:space="preserve">
<style type="text/css">
	.st0{fill:none;stroke:#000000;stroke-width:0.1686;}
	.st1{fill:none;stroke:#000000;stroke-width:0.1655;}
	.st2{fill:none;stroke:#000000;stroke-width:0.155;}
	.st3{fill:none;stroke:#000000;stroke-width:2.809396e-02;}
	.st4{fill:none;stroke:#000000;stroke-width:0.1107;}
	.st5{fill:none;stroke:#000000;stroke-width:4.136400e-02;}
	.st6{fill:none;stroke:#000000;stroke-width:0.1416;}
	.st7{fill:none;stroke:#000000;stroke-width:0.1055;}
	.st8{fill:none;stroke:#000000;stroke-width:2.944582e-02;}
	.st9{fill:none;stroke:#000000;stroke-width:9.093243e-02;}
	.st10{fill:none;stroke:#000000;stroke-width:8.191998e-02;}
	.st11{fill:none;stroke:#000000;stroke-width:5.276940e-02;}
</style>
<path d="M34.5,16.9c0,1.4,1.9-1.9-0.8,4.4c-0.4,1-1.1,1.6-0.6,2.4c0.9,1.5,2.9,4.6,2.9,7.4c0,0.1-0.2,0.1-1.2,0.7
	c-1.2,0.8-1.5,0.9-2,0.4c-0.4-0.4,0.3,0-0.1-0.5c-0.7-1,0.2-0.5,1.1-1.4c0.2-0.2,0.2-0.5,0.1-0.9c-0.1-0.3-0.2-0.3-0.4-0.7
	c-0.1-0.2-0.3-0.7-0.5-1.1c-0.7-1.7-1.9-3.2-2.1-3.6c-0.3-0.8,0.4-2.8,0.8-4.5c1.5-5.8,1-2,1-2.7c0-6.9,0.4-11.5,1-11.5
	C34,5.5,34.5,10.1,34.5,16.9L34.5,16.9z"/>
<path class="st0" d="M34.5,16.9c0,1.4,1.9-1.9-0.8,4.4c-0.4,1-1.1,1.6-0.6,2.4c0.9,1.5,2.9,4.6,2.9,7.4c0,0.1-0.2,0.1-1.2,0.7
	c-1.2,0.8-1.5,0.9-2,0.4c-0.4-0.4,0.3,0-0.1-0.5c-0.7-1,0.2-0.5,1.1-1.4c0.2-0.2,0.2-0.5,0.1-0.9c-0.1-0.3-0.2-0.3-0.4-0.7
	c-0.1-0.2-0.3-0.7-0.5-1.1c-0.7-1.7-1.9-3.2-2.1-3.6c-0.3-0.8,0.4-2.8,0.8-4.5c1.5-5.8,1-2,1-2.7c0-6.9,0.4-11.5,1-11.5
	C34,5.5,34.5,10.1,34.5,16.9L34.5,16.9z"/>
<path d="M36.2,24.2c0,0.2,0,0.5,0,0.7c0,0.2,0,0.1,0,0.3c0,0.3,0,0.6,0.1,1c0,0.1,0.1,0.4,0.1,0.5c0,0.2,0,0.3,0,0.5
	c0,0.3,0,0.6,0,1c0,0.2,0,0.3,0,0.5c0,0.2,0.1,0.4,0.1,0.6c0,0.2-0.1,0.2-0.1,0.3c0,0.2-0.1,0.2-0.2,0.4c0,0.1,0.2,0.5,0.1,0.6
	c-0.1,0.4-0.5,0.6-0.9,0.5c-0.2,0-1.3-4.4-1.5-8c-0.2-4.4,1.5-10.4,1.8-10.4c0.2,0,1.3,3.6,0.9,4.2c-0.5,0.7,0.6-1.3-0.2,2.6
	c0,0.1-0.2,2.6-0.3,4C36.2,23.7,36.2,24,36.2,24.2L36.2,24.2z"/>
<path class="st0" d="M36.2,24.2c0,0.2,0,0.5,0,0.7c0,0.2,0,0.1,0,0.3c0,0.3,0,0.6,0.1,1c0,0.1,0.1,0.4,0.1,0.5c0,0.2,0,0.3,0,0.5
	c0,0.3,0,0.6,0,1c0,0.2,0,0.3,0,0.5c0,0.2,0.1,0.4,0.1,0.6c0,0.2-0.1,0.2-0.1,0.3c0,0.2-0.1,0.2-0.2,0.4c0,0.1,0.2,0.5,0.1,0.6
	c-0.1,0.4-0.5,0.6-0.9,0.5c-0.2,0-1.3-4.4-1.5-8c-0.2-4.4,1.5-10.4,1.8-10.4c0.2,0,1.3,3.6,0.9,4.2c-0.5,0.7,0.6-1.3-0.2,2.6
	c0,0.1-0.2,2.6-0.3,4C36.2,23.7,36.2,24,36.2,24.2L36.2,24.2z"/>
<path d="M36.4,11.2c0,2.3,3.3,5.9,3.1,6.3c-0.2,0.3-3.6-0.4-4.6-0.3c-0.6,0-2.3,0.6-2.6-0.8c0.7-3.6,0.1-6.4,0.1-7.1
	c-0.5-1.5,0.4-4.4,2.5-4.5C37.9,4.6,36.4,7.9,36.4,11.2L36.4,11.2z"/>
<path class="st1" d="M36.4,11.2c0,2.3,3.3,5.9,3.1,6.3c-0.2,0.3-3.6-0.4-4.6-0.3c-0.6,0-2.3,0.6-2.6-0.8c0.7-3.6,0.1-6.4,0.1-7.1
	c-0.5-1.5,0.4-4.4,2.5-4.5C37.9,4.6,36.4,7.9,36.4,11.2L36.4,11.2z"/>
<path d="M35.9,10.4c0.1,0.2-0.4,1.3-2.2,1.6c-1.1,0-3.3,0.9-4.5,1c-0.3,0,0.1-0.2-0.2-0.3c-0.3-0.2-0.4-0.7-0.4-0.8s0.1-0.4,0.7-0.6
	c0.5-0.1,1.3-0.3,4.7-1.8C35.7,8.8,35.8,10.1,35.9,10.4L35.9,10.4z"/>
<path class="st2" d="M35.9,10.4c0.1,0.2-0.4,1.3-2.2,1.6c-1.1,0-3.3,0.9-4.5,1c-0.3,0,0.1-0.2-0.2-0.3c-0.3-0.2-0.4-0.7-0.4-0.8
	s0.1-0.4,0.7-0.6c0.5-0.1,1.3-0.3,4.7-1.8C35.7,8.8,35.8,10.1,35.9,10.4L35.9,10.4z"/>
<path d="M36.2,30.8c0.1,0.2,0.2,0.6,0,0.9c-0.1,0.2-0.3,0.2-0.9,0.4c0,0-0.1-0.1-0.2-0.1c-0.5,0.1-0.4,0.5-1,0.7
	c-1,0.2-2.7,0-2.8-0.2c-0.1-0.3,0.5-0.7,1.4-0.9c0.3-0.1,0.4-0.7,0.8-0.8c0.2,0,0.3-0.4,0.4-0.4c1-0.4,2-0.4,2.1,0L36.2,30.8z"/>
<path class="st3" d="M36.2,30.8c0.1,0.2,0.2,0.6,0,0.9c-0.1,0.2-0.3,0.2-0.9,0.4c0,0-0.1-0.1-0.2-0.1c-0.5,0.1-0.4,0.5-1,0.7
	c-1,0.2-2.7,0-2.8-0.2c-0.1-0.3,0.5-0.7,1.4-0.9c0.3-0.1,0.4-0.7,0.8-0.8c0.2,0,0.3-0.4,0.4-0.4c1-0.4,2-0.4,2.1,0L36.2,30.8z"/>
<path d="M36.1,30.1c0.1,0.2,0.2,0.6,0,0.9c-0.1,0.2-0.3,0.2-0.9,0.4c0,0-0.1-0.1-0.2-0.1c-0.5,0.1-0.4,0.5-1,0.7
	c-1,0.2-2.7,0-2.8-0.2c-0.1-0.3,0.5-0.7,1.4-0.9c0.3-0.1,0.7-0.5,1.1-0.6c0.2,0,0-0.6,0.1-0.6c1-0.4,2-0.4,2.1,0L36.1,30.1z"/>
<path class="st3" d="M36.1,30.1c0.1,0.2,0.2,0.6,0,0.9c-0.1,0.2-0.3,0.2-0.9,0.4c0,0-0.1-0.1-0.2-0.1c-0.5,0.1-0.4,0.5-1,0.7
	c-1,0.2-2.7,0-2.8-0.2c-0.1-0.3,0.5-0.7,1.4-0.9c0.3-0.1,0.7-0.5,1.1-0.6c0.2,0,0-0.6,0.1-0.6c1-0.4,2-0.4,2.1,0L36.1,30.1z"/>
<path d="M25.4,32c-3,1.6-6.7-0.1-11-0.9c-4.8-0.9-7.5-2.4-5.9-1.4c-1.9-1.1,2,1.1,5.6-3.5c2-2.5,2.3-4.9,3.6-7.4
	c1.6-3.1,4-6.1,4-6.2c-3.9-5.3-1.2-5.3,0.2-5.3c0.5,0,1.1,0.9,1.9,1.5c0.3,0.2,0.8,0.7,0.9,1.2c0.1,0.6-0.5,1.2-0.7,1.8
	c-0.2,0.6,0,1.3,0,2.1c0.3,5.4,8.1,14.7,6.8,17.8C30.1,33.1,26.2,31.7,25.4,32L25.4,32z"/>
<path class="st4" d="M25.4,32c-3,1.6-6.7-0.1-11-0.9c-4.8-0.9-7.5-2.4-5.9-1.4c-1.7-1,2,1.1,5.6-3.5c2-2.5,2.3-4.9,3.6-7.4
	c1.6-3.1,4-6.1,4-6.2c-3.9-5.3-1.2-5.3,0.2-5.3c0.5,0,1.1,0.9,1.9,1.5c0.3,0.2,0.8,0.7,0.9,1.2c0.1,0.6-0.5,1.2-0.7,1.8
	c-0.2,0.6,0,1.3,0,2.1c0.3,5.4,8.1,14.7,6.8,17.8C30.1,33.1,26.2,31.7,25.4,32L25.4,32z"/>
<path d="M23.4,4.7c0.1,0.4,0.3,0.5,0.3,0.6c-0.1,0.1-0.1,0.1-0.2,0.2c0,0.2,0.1,0.1-0.1,0.3c-0.1,0.1,0.2,0,0.1,0.1
	c-0.2,0.1-0.1,0.4-0.2,0.5c-0.2,0.1-1.3,0-1.4,0c-0.2,0.1,0.2-0.1,0-0.1c-0.7-0.1-1.3-0.2-1.6-1.1c-0.4-1.1,0.1-2,1-2.3
	c0.5-0.2,1.5,0,1.9,0.6c0.2,0.2,0.3,0.6,0.3,0.8C23.5,4.5,23.3,4.6,23.4,4.7L23.4,4.7z"/>
<path class="st5" d="M23.4,4.7c0.1,0.4,0.3,0.5,0.3,0.6c-0.1,0.1-0.1,0.1-0.2,0.2c0,0.2,0.1,0.1-0.1,0.3c-0.1,0.1,0.2,0,0.1,0.1
	c-0.2,0.1-0.1,0.4-0.2,0.5c-0.2,0.1-1.3,0-1.4,0c-0.2,0.1,0.2-0.1,0-0.1c-0.7-0.1-1.3-0.2-1.6-1.1c-0.4-1.1,0.1-2,1-2.3
	c0.5-0.2,1.5,0,1.9,0.6c0.2,0.2,0.3,0.6,0.3,0.8C23.5,4.5,23.3,4.6,23.4,4.7L23.4,4.7z"/>
<path d="M22,7.3c-0.4,1.4,0.1,1.1-0.3,1.1c-0.4,0-1.9,0.3-1.9-0.4c0-0.2,0.2-0.3,0.3-0.4c0.6-0.3,0.6-0.8,0.6-1.8
	C20.8,5.4,22.8,4.5,22,7.3L22,7.3z"/>
<path class="st5" d="M22,7.3c-0.4,1.4,0.1,1.1-0.3,1.1c-0.4,0-1.9,0.3-1.9-0.4c0-0.2,0.2-0.3,0.3-0.4c0.6-0.3,0.6-0.8,0.6-1.8
	C20.8,5.4,22.8,4.5,22,7.3L22,7.3z"/>
<path d="M21.1,4.7c0.1,0.6-0.2,1.2-0.8,1.3s-1-0.4-1.1-1c-0.1-0.6,0.2-1.2,0.8-1.3C20.5,3.6,21,4.1,21.1,4.7L21.1,4.7z"/>
<path class="st6" d="M21.1,4.7c0.1,0.6-0.2,1.2-0.8,1.3s-1-0.4-1.1-1c-0.1-0.6,0.2-1.2,0.8-1.3C20.5,3.6,21,4.1,21.1,4.7L21.1,4.7z"
	/>
<path d="M35.3,3.9c1,1.4,1.6,2.7,1.4,3.4c-0.1,0.4-1.9,0.4-2.3,0.4c-0.6,0-1.8,0.5-1.9-0.4c-0.1-1.1,0.9-1.7,0.9-2.4
	c0-0.5-0.2-0.6-0.2-1.1c0-2.3,1.2-2.9,1.6-1.8C34.9,2.6,33.9,2,35.3,3.9L35.3,3.9z"/>
<path class="st7" d="M35.3,3.9c1,1.4,1.6,2.7,1.4,3.4c-0.1,0.4-1.9,0.4-2.3,0.4c-0.6,0-1.8,0.5-1.9-0.4c-0.1-1.1,0.9-1.7,0.9-2.4
	c0-0.5-0.2-0.6-0.2-1.1c0-2.3,1.2-2.9,1.6-1.8C34.9,2.6,33.9,2,35.3,3.9L35.3,3.9z"/>
<path d="M35,3c-0.6,1.3-0.1,1-1.2,1c-0.5,0-1.3,0.8-1.6,0.4c-0.1-0.1,0-0.2-0.1-0.4C32,3.9,31.9,4,31.9,3.8c0-0.1,0.1-0.3,0.1-0.4
	c0-0.1-0.4,0-0.5-0.2c0-0.2,0.2-0.5,0.2-0.7c0-0.4-0.1-0.8,0-1.1c0-0.1-0.3,0.3-0.2,0.2c0.1-0.2,0.2-0.3,0.3-0.5
	c0-0.1-0.3,0.2-0.2,0.1c0.5-0.5,1.5-1.3,2-1.3C34.2,0.1,35.6,0.8,35,3L35,3z"/>
<path class="st8" d="M35,3c-0.6,1.3-0.1,1-1.2,1c-0.5,0-1.3,0.8-1.6,0.4c-0.1-0.1,0-0.2-0.1-0.4C32,3.9,31.9,4,31.9,3.8
	c0-0.1,0.1-0.3,0.1-0.4c0-0.1-0.4,0-0.5-0.2c0-0.2,0.2-0.5,0.2-0.7c0-0.4-0.1-0.8,0-1.1c0-0.1-0.3,0.3-0.2,0.2
	c0.1-0.2,0.2-0.3,0.3-0.5c0-0.1-0.3,0.2-0.2,0.1c0.5-0.5,1.5-1.3,2-1.3C34.2,0.1,35.6,0.8,35,3L35,3z"/>
<path d="M18.9,12.3c-0.1,0.2-0.1,0.6-0.9,1.4c-0.3,0.3-1.1,1.3-1.6,1.8c-0.2,0.2-0.4,0.6-0.6,0.7c-1,0.3-0.6,1-1.4,0.3
	c-0.1-0.1,0.3-0.8,0.4-0.9c0.2-0.2,0.5,0.2,1.2-0.5c0.4-0.4,0.8-1.6,1.2-2.2c0.3-0.4,0.7-0.9,1-1.4c1.1-2,1.2-4.1,2.2-3.9
	C20.7,7.8,20.3,10.3,18.9,12.3L18.9,12.3z"/>
<path class="st9" d="M18.9,12.3c-0.1,0.2-0.1,0.6-0.9,1.4c-0.3,0.3-1.1,1.3-1.6,1.8c-0.2,0.2-0.4,0.6-0.6,0.7c-1,0.3-0.6,1-1.4,0.3
	c-0.1-0.1,0.3-0.8,0.4-0.9c0.2-0.2,0.5,0.2,1.2-0.5c0.4-0.4,0.8-1.6,1.2-2.2c0.3-0.4,0.7-0.9,1-1.4c1.1-2,1.2-4.1,2.2-3.9
	C20.7,7.8,20.3,10.3,18.9,12.3L18.9,12.3z"/>
<path d="M23.6,11.2c0.2,0,0.5,0.4,1.4,0.8c0.3,0.2,1.4,0.4,1.9,0.7c0.2,0.1,0.6,0.1,0.7,0.3c0.5,0.7,1.2-0.6,1,0.4
	c0,0.1-1,0.4-1.2,0.3c-0.2-0.2,0.1-0.2-0.7-0.4c-0.5-0.1-1.4,0-2-0.2c-0.4-0.1-0.9-0.2-1.4-0.3c-1.9-0.2-0.7-2.1-0.9-3.1
	C22.4,9.3,21.7,10.8,23.6,11.2L23.6,11.2z"/>
<path class="st10" d="M23.6,11.2c0.2,0,0.5,0.4,1.4,0.8c0.3,0.2,1.4,0.4,1.9,0.7c0.2,0.1,0.6,0.1,0.7,0.3c0.5,0.7,1.2-0.6,1,0.4
	c0,0.1-1,0.4-1.2,0.3c-0.2-0.2,0.1-0.2-0.7-0.4c-0.5-0.1-1.4,0-2-0.2c-0.4-0.1-0.9-0.2-1.4-0.3c-1.9-0.2-0.7-2.1-0.9-3.1
	C22.4,9.3,21.7,10.8,23.6,11.2L23.6,11.2z"/>
<path d="M29.6,12.1c1,0.1-0.2,0.7-0.7,0.9c-0.1,0-0.9,0.4-1,0.4c-0.5,0.1-0.3-0.6-0.6-0.6c-0.8-0.3,0.4-0.1,0.6-0.2
	c0.2-0.2,0.1-0.4,1-0.7C30.3,11.3,29.3,12.1,29.6,12.1L29.6,12.1z"/>
<path class="st11" d="M29.6,12.1c1,0.1-0.2,0.7-0.7,0.9c-0.1,0-0.9,0.4-1,0.4c-0.5,0.1-0.3-0.6-0.6-0.6c-0.8-0.3,0.4-0.1,0.6-0.2
	c0.2-0.2,0.1-0.4,1-0.7C30.3,11.3,29.3,12.1,29.6,12.1L29.6,12.1z"/>
<path d="M19.6,29.9c0,0-0.3,0-0.7,0.1c-0.5,0.1-1.1,0.2-1.9,0.2c-0.8,0.1-1.7,0.2-2.7,0.2c-1,0.1-2.1,0.1-3.1,0.2
	c-0.4,0-0.8,0-1.2,0c-0.4,0-0.8,0-1.2,0c-0.4,0-0.8,0-1.1-0.1c-0.4,0-0.7-0.1-1.1-0.1c-0.5-0.1-1-0.2-1.5-0.4
	c-0.4-0.1-0.8-0.3-1.1-0.4c-0.3-0.2-0.5-0.3-0.7-0.4C3.1,29.1,3,29,3,29c0,0-0.1,0-0.2-0.1c-0.1-0.1-0.2-0.1-0.4-0.2
	c-0.2-0.2-0.5-0.4-0.7-0.6c-0.3-0.3-0.6-0.6-0.9-1.1c-0.2-0.3-0.4-0.6-0.5-1c-0.1-0.4-0.3-0.8-0.3-1.3c0-0.4,0-0.8,0-1.3
	c0.1-0.4,0.2-0.9,0.4-1.3c0.2-0.4,0.4-0.8,0.7-1.1c0.3-0.3,0.7-0.7,1.1-0.9c0.4-0.2,0.8-0.4,1.2-0.5c0.4-0.1,0.9-0.1,1.3-0.1
	c0.5,0,1,0.2,1.4,0.4c0.4,0.2,0.8,0.5,1.2,0.8c0.2,0.2,0.4,0.5,0.6,0.8c0.2,0.3,0.3,0.5,0.4,0.8c0.1,0.3,0.2,0.7,0.2,1
	c0,0.3,0,0.7,0,1c0,0.4-0.1,0.7-0.3,1c-0.1,0.3-0.3,0.6-0.4,0.8c-0.2,0.3-0.4,0.5-0.5,0.7c-0.2,0.2-0.3,0.3-0.5,0.4
	c-0.1,0.1-0.3,0.2-0.3,0.2c-0.1,0-0.1,0.1-0.1,0.1s0,0,0.1-0.1c0.1-0.1,0.2-0.1,0.3-0.3C7,27.2,7.2,27,7.4,26.8
	c0.2-0.2,0.3-0.4,0.5-0.7c0.1-0.2,0.3-0.5,0.4-0.8c0.1-0.3,0.2-0.7,0.2-1c0-0.3,0-0.6,0-0.9c0-0.3-0.1-0.6-0.2-0.9
	c-0.1-0.3-0.2-0.5-0.4-0.8c-0.2-0.2-0.4-0.5-0.6-0.7c-0.3-0.3-0.7-0.5-1.1-0.7C5.7,20.1,5.3,20,4.8,20c-0.4,0-0.8,0-1.2,0.1
	s-0.8,0.3-1.1,0.5c-0.3,0.2-0.6,0.4-0.9,0.7c-0.2,0.3-0.5,0.6-0.6,0.9C1,22.3,1,22.4,1,22.5c-0.2,0.4-0.2,0.7-0.3,1.1
	c0,0.4,0,0.8,0,1.1c0.1,0.4,0.2,0.7,0.3,1c0.1,0.3,0.3,0.6,0.5,0.9C1.7,27,2,27.2,2.2,27.5c0.2,0.2,0.5,0.4,0.8,0.6
	c0.3,0.2,0.7,0.4,1,0.5c0.3,0.1,0.7,0.2,1,0.3c0.3,0.1,0.7,0.1,1,0.2c0.3,0,0.6,0.1,0.8,0.1s0.5,0,0.7,0c0.2,0,0.4,0,0.5,0
	c0.1,0,0.2,0,0.3,0s0.1,0,0.1,0c0,0,0.1,0,0.2,0c0.1,0,0.3,0.1,0.6,0.1c0.2,0,0.5,0.1,0.9,0.1c0.3,0,0.7,0.1,1.1,0.1
	c0.8,0.1,1.8,0.1,2.7,0.2c1,0,1.9,0.1,2.7,0.1c0.8,0,1.6,0,2.1,0C19.3,29.9,19.6,29.9,19.6,29.9L19.6,29.9z"/>
<path d="M20.7,3.2C20.7,3.2,20.7,3.2,20.7,3.2c-0.1-0.1-0.2-0.1-0.3-0.2S20.1,2.9,20,2.9s-0.3-0.1-0.6-0.1c-0.2,0-0.4,0-0.6,0
	c-0.2,0-0.5,0-0.7,0.1c-0.3,0.1-0.6,0.2-0.9,0.4c-0.3,0.2-0.6,0.4-0.8,0.7c-0.2,0.2-0.4,0.5-0.6,0.8c-0.2,0.3-0.3,0.6-0.5,1
	c-0.1,0.3-0.2,0.6-0.3,1s-0.2,0.7-0.2,1c-0.1,0.3-0.1,0.7-0.2,1c-0.1,0.3-0.1,0.7-0.2,1.1c-0.1,0.6-0.3,1.2-0.5,1.8
	c0,0.1-0.1,0.2-0.1,0.3c-0.2,0.3-0.3,0.6-0.5,0.9c-0.2,0.3-0.4,0.6-0.7,0.8c-0.3,0.3-0.6,0.5-0.9,0.7c-0.3,0.2-0.7,0.3-1,0.4
	c-0.4,0.1-0.8,0.1-1.1,0c-0.4-0.1-0.7-0.2-1-0.4c-0.2-0.2-0.5-0.4-0.6-0.6c-0.2-0.2-0.3-0.4-0.4-0.7c-0.1-0.3-0.2-0.6-0.2-0.8
	c0-0.3,0-0.5,0.1-0.8c0.1-0.3,0.2-0.6,0.4-0.8c0.2-0.2,0.4-0.4,0.5-0.5c0.2-0.1,0.4-0.2,0.6-0.3c0.2-0.1,0.4-0.1,0.5-0.1
	c0.1,0,0.2,0,0.3,0c0.1,0,0.1,0,0.1,0s0,0-0.1,0c-0.1,0-0.2,0-0.3,0c-0.1,0-0.3,0.1-0.5,0.1C9.1,9.9,8.9,10,8.7,10.2
	c-0.2,0.1-0.4,0.3-0.5,0.5s-0.3,0.4-0.4,0.7c-0.1,0.2-0.1,0.5-0.1,0.7c0,0.2,0,0.5,0.2,0.8c0.1,0.2,0.2,0.4,0.4,0.6
	c0.2,0.2,0.4,0.4,0.6,0.5c0.3,0.2,0.6,0.3,0.9,0.3c0.3,0,0.7,0,1,0c0.3-0.1,0.6-0.2,0.9-0.4c0.3-0.2,0.6-0.4,0.8-0.6
	c0.2-0.2,0.4-0.5,0.6-0.8s0.3-0.6,0.5-0.9c0-0.1,0.1-0.2,0.1-0.3c0.2-0.6,0.4-1.1,0.5-1.7c0.1-0.4,0.1-0.7,0.2-1.1
	c0.1-0.3,0.1-0.7,0.2-1c0.1-0.4,0.1-0.7,0.2-1.1s0.2-0.7,0.3-1c0.1-0.4,0.3-0.7,0.5-1S16,4,16.2,3.7c0.3-0.3,0.6-0.5,0.9-0.7
	s0.6-0.3,0.9-0.4c0.3-0.1,0.5-0.1,0.7-0.1c0.2,0,0.5,0,0.7,0.1c0.2,0,0.4,0.1,0.6,0.2c0.2,0.1,0.3,0.1,0.4,0.2
	C20.5,3,20.6,3.1,20.7,3.2C20.7,3.1,20.7,3.2,20.7,3.2L20.7,3.2z"/>
<path d="M12.4,13.7c0,0,0,0,0,0.1c0,0.1-0.1,0.2-0.2,0.3c-0.1,0.1-0.2,0.3-0.4,0.5c-0.2,0.2-0.4,0.4-0.6,0.5
	c-0.2,0.2-0.5,0.3-0.8,0.5c-0.3,0.1-0.6,0.2-1,0.3C9.1,16,8.8,16,8.5,16s-0.7,0-1-0.1c-0.5-0.1-0.9-0.3-1.4-0.5
	c-0.1-0.1-0.3-0.2-0.4-0.2c-0.3-0.2-0.6-0.4-0.8-0.7c-0.1-0.2-0.2-0.3-0.3-0.5c-0.1-0.2-0.1-0.3-0.1-0.5c0-0.2,0-0.4,0-0.6
	c0-0.2,0.1-0.3,0.2-0.5c0.1-0.2,0.3-0.3,0.4-0.4c0.2-0.1,0.4-0.1,0.5-0.1c0.1,0,0.2,0,0.3,0.1c0.1,0,0.2,0.1,0.3,0.2
	c0.1,0.1,0.2,0.2,0.2,0.3c0.1,0.1,0.1,0.2,0.1,0.3c0,0.1,0,0.2,0,0.4c0,0.1,0,0.2-0.1,0.3c0,0.1-0.1,0.2-0.1,0.2
	c0,0.1-0.1,0.1-0.1,0.1c0,0-0.1,0.1-0.1,0.1c0,0,0,0,0,0s0,0,0,0c0,0,0,0,0.1-0.1c0,0,0.1-0.1,0.1-0.2c0-0.1,0.1-0.1,0.1-0.2
	c0-0.1,0-0.2,0-0.3s0-0.2,0-0.3c0-0.1-0.1-0.2-0.1-0.2c-0.1-0.1-0.1-0.2-0.2-0.2c-0.1,0-0.2-0.1-0.2-0.1c-0.1,0-0.2,0-0.3,0
	c-0.2,0-0.3,0-0.5,0.1C5.2,12.3,5,12.4,5,12.5c-0.1,0.1-0.2,0.3-0.2,0.4c0,0.2,0,0.3,0,0.5c0,0.2,0.1,0.3,0.1,0.4
	C4.9,14,5,14.2,5.1,14.3c0.2,0.3,0.4,0.5,0.7,0.7c0.1,0.1,0.2,0.2,0.4,0.2c0.4,0.2,0.9,0.4,1.3,0.5c0.3,0.1,0.6,0.1,1,0.1
	c0.3,0,0.6,0,0.9-0.1c0.3-0.1,0.7-0.2,0.9-0.3c0.3-0.1,0.5-0.3,0.8-0.4c0.2-0.2,0.4-0.3,0.6-0.5s0.3-0.3,0.4-0.4
	c0.1-0.1,0.2-0.2,0.2-0.3C12.4,13.7,12.4,13.7,12.4,13.7L12.4,13.7z"/>
</svg>
